<svg class="styles_icon__1bYKL search-form-submit-button__icon" width="20" height="20" viewBox="0 0 20 20" fill="none" xmlns="http://www.w3.org/2000/svg"><path fill-rule="evenodd" d="M13.6667 8.74984C13.6667 11.4652 11.4654 13.6665 8.75002 13.6665C6.03462 13.6665 3.83335 11.4652 3.83335 8.74984C3.83335 6.03444 6.03462 3.83317 8.75002 3.83317C11.4654 3.83317 13.6667 6.03444 13.6667 8.74984ZM12.7965 14.5643C11.6494 15.3641 10.2545 15.8332 8.75002 15.8332C4.838 15.8332 1.66669 12.6619 1.66669 8.74984C1.66669 4.83782 4.838 1.6665 8.75002 1.6665C12.662 1.6665 15.8334 4.83782 15.8334 8.74984C15.8334 10.2544 15.3643 11.6494 14.5643 12.7966L17.9672 16.1994L16.1994 17.9672L12.7965 14.5643Z" fill="currentColor"></path></svg>